<?xml version="1.0" encoding="utf-8"?><!-- Uploaded to: SVG Repo, www.svgrepo.com, Generator: SVG Repo Mixer Tools -->
<svg version="1.1" id="Uploaded to svgrepo.com" xmlns="http://www.w3.org/2000/svg" xmlns:xlink="http://www.w3.org/1999/xlink" 
	 width="800px" height="800px" viewBox="0 0 32 32" xml:space="preserve">
<style type="text/css">
	.feather_een{fill:#111918;}
	.st0{fill:#0B1719;}
</style>
<path class="feather_een" d="M17,25c0,0.552-0.448,1-1,1s-1-0.448-1-1c0-0.552,0.448-1,1-1S17,24.448,17,25z M16,8
	c0.552,0,1-0.448,1-1c0-0.552-0.448-1-1-1s-1,0.448-1,1C15,7.552,15.448,8,16,8z M7,15c-0.552,0-1,0.448-1,1c0,0.552,0.448,1,1,1
	s1-0.448,1-1C8,15.448,7.552,15,7,15z M28,16c0,6.617-5.383,12-12,12S4,22.617,4,16S9.383,4,16,4S28,9.383,28,16z M27,16
	c0-6.075-4.925-11-11-11S5,9.925,5,16s4.925,11,11,11S27,22.075,27,16z M25,15c-0.552,0-1,0.448-1,1c0,0.552,0.448,1,1,1
	s1-0.448,1-1C26,15.448,25.552,15,25,15z M30,16c0,7.732-6.268,14-14,14S2,23.732,2,16S8.268,2,16,2S30,8.268,30,16z M29,16
	c0-7.168-5.832-13-13-13S3,8.832,3,16s5.832,13,13,13S29,23.168,29,16z M16.951,16.244C16.971,16.164,17,16.086,17,16
	c0-0.366-0.206-0.673-0.5-0.847V10c0-0.276-0.224-0.5-0.5-0.5s-0.5,0.224-0.5,0.5v5.153C15.206,15.327,15,15.634,15,16
	c0,0.552,0.448,1,1,1c0.086,0,0.164-0.029,0.244-0.049l5.403,5.403C21.744,22.451,21.872,22.5,22,22.5s0.256-0.049,0.354-0.146
	c0.195-0.195,0.195-0.512,0-0.707L16.951,16.244z"/>
</svg>